<svg width="210" height="18" viewBox="0 0 210 18" fill="none" xmlns="http://www.w3.org/2000/svg">
<path d="M3.65775 17.639V11.0455H9.98663V7.89305H3.65775V3.53743H11.1658V0.360962H0V17.639H3.65775Z" fill="black"/>
<path d="M21.8108 11.1417L27.9712 0.360962H24.2894L20.1022 7.79679L15.9873 0.360962H12.0407L18.153 11.1417V17.639H21.8108V11.1417Z" fill="black"/>
<path d="M33.55 17.639V11.5267H35.8361L39.7345 17.639H44.0901L39.6382 10.9733C42.0927 10.1551 43.5366 8.30214 43.5366 5.96792C43.5366 2.38235 41.0099 0.360962 36.6542 0.360962H29.8922V17.639H33.55ZM33.55 3.39305H36.4858C38.6997 3.39305 39.8788 4.25936 39.8788 5.96792C39.8788 7.65241 38.6997 8.51872 36.4858 8.51872H33.55V3.39305Z" fill="black"/>
<path d="M50.0236 17.639V11.5267H52.3097L56.2081 17.639H60.5637L56.1118 10.9733C58.5664 10.1551 60.0102 8.30214 60.0102 5.96792C60.0102 2.38235 57.4835 0.360962 53.1279 0.360962H46.3658V17.639H50.0236ZM50.0236 3.39305H52.9594C55.1733 3.39305 56.3525 4.25936 56.3525 5.96792C56.3525 7.65241 55.1733 8.51872 52.9594 8.51872H50.0236V3.39305Z" fill="black"/>
<path d="M74.4624 14.4626H66.4972V10.3235H73.5721V7.17112H66.4972V3.53743H74.294V0.360962H62.8394V17.639H74.4624V14.4626Z" fill="black"/>
<path d="M90.166 17.639H93.2222L97.7943 6.06417V17.639H101.115V0.360962H96.7355L91.7061 13.1631L86.7008 0.360962H82.3211V17.639H85.6419V6.16043L90.166 17.639Z" fill="black"/>
<path d="M116.197 17.639H120.12L113.67 0.360962H109.676L103.178 17.639H106.86L108.184 13.9332H114.898L116.197 17.639ZM111.577 4.35561L113.887 11.0214H109.218L111.577 4.35561Z" fill="black"/>
<path d="M129.107 18C134.618 18 138.035 13.9572 137.818 8.3262H128.914V11.238H133.92C133.438 13.3797 131.826 14.8957 129.275 14.8957C125.81 14.8957 123.957 12.3449 123.957 9.02406C123.957 5.31818 126.075 3.27273 128.866 3.27273C131.176 3.27273 132.765 4.59626 133.294 6.35294H137.602C136.471 2.59893 133.342 0 128.963 0C123.909 0 120.203 3.82621 120.203 8.92781C120.203 14.2701 124.102 18 129.107 18Z" fill="black"/>
<path d="M151.001 17.639H154.923L148.474 0.360962H144.479L137.982 17.639H141.664L142.987 13.9332H149.701L151.001 17.639ZM146.38 4.35561L148.691 11.0214H144.022L146.38 4.35561Z" fill="black"/>
<path d="M169.854 17.639V14.4866H160.686L169.566 3.29679V0.360962H156.258V3.51337H165.066L156.234 14.7513V17.639H169.854Z" fill="black"/>
<path d="M176.172 17.639V0.360962H172.515V17.639H176.172Z" fill="black"/>
<path d="M190.968 17.639H194.553V0.360962H191.184V11.8155L183.652 0.360962H179.706V17.639H183.051V5.58289L190.968 17.639Z" fill="black"/>
<path d="M209.729 14.4626H201.764V10.3235H208.839V7.17112H201.764V3.53743H209.561V0.360962H198.106V17.639H209.729V14.4626Z" fill="black"/>
</svg>
