<svg width="209" height="18" viewBox="0 0 209 18" fill="none" xmlns="http://www.w3.org/2000/svg">
<path d="M3.64503 17.5986V11.0202H9.9519V7.87497H3.64503V3.52933H11.1269V0.360136H0V17.5986H3.64503Z" fill="white"/>
<path d="M21.7349 11.1162L27.8739 0.360136H24.2049L20.0323 7.77894L15.9317 0.360136H11.9989L18.0899 11.1162V17.5986H21.7349V11.1162Z" fill="white"/>
<path d="M33.4333 17.5986V11.5003H35.7114L39.5963 17.5986H43.9367L39.5003 10.9481C41.9464 10.1318 43.3852 8.28313 43.3852 5.95425C43.3852 2.3769 40.8672 0.360136 36.5268 0.360136H29.7883V17.5986H33.4333ZM33.4333 3.38528H36.3589C38.5651 3.38528 39.7402 4.2496 39.7402 5.95425C39.7402 7.63488 38.5651 8.49921 36.3589 8.49921H33.4333V3.38528Z" fill="white"/>
<path d="M49.8496 17.5986V11.5003H52.1278L56.0126 17.5986H60.3531L55.9167 10.9481C58.3627 10.1318 59.8015 8.28313 59.8015 5.95425C59.8015 2.3769 57.2836 0.360136 52.9431 0.360136H46.2046V17.5986H49.8496ZM49.8496 3.38528H52.7752C54.9814 3.38528 56.1565 4.2496 56.1565 5.95425C56.1565 7.63488 54.9814 8.49921 52.7752 8.49921H49.8496V3.38528Z" fill="white"/>
<path d="M74.2035 14.4294H66.2659V10.2999H73.3162V7.1547H66.2659V3.52933H74.0356V0.360136H62.6209V17.5986H74.2035V14.4294Z" fill="white"/>
<path d="M89.8524 17.5986H92.898L97.4542 6.05028V17.5986H100.764V0.360136H96.3991L91.3872 13.133L86.3992 0.360136H82.0348V17.5986H85.3441V6.14632L89.8524 17.5986Z" fill="white"/>
<path d="M115.793 17.5986H119.702L113.275 0.360136H109.294L102.819 17.5986H106.489L107.807 13.9012H114.498L115.793 17.5986ZM111.189 4.34564L113.491 10.9962H108.839L111.189 4.34564Z" fill="white"/>
<path d="M128.658 17.9588C134.149 17.9588 137.555 13.9253 137.339 8.30714H128.466V11.2122H133.454C132.974 13.349 131.368 14.8616 128.826 14.8616C125.373 14.8616 123.526 12.3166 123.526 9.0034C123.526 5.306 125.636 3.26523 128.418 3.26523C130.72 3.26523 132.303 4.58573 132.831 6.33839H137.123C135.996 2.59298 132.878 0 128.514 0C123.478 0 119.785 3.81744 119.785 8.90736C119.785 14.2374 123.67 17.9588 128.658 17.9588Z" fill="white"/>
<path d="M150.476 17.5986H154.384L147.958 0.360136H143.977L137.502 17.5986H141.171L142.49 13.9012H149.181L150.476 17.5986ZM145.871 4.34564L148.174 10.9962H143.521L145.871 4.34564Z" fill="white"/>
<path d="M169.264 17.5986V14.4535H160.127L168.976 3.28924V0.360136H155.715V3.50532H164.491L155.691 14.7176V17.5986H169.264Z" fill="white"/>
<path d="M175.56 17.5986V0.360136H171.915V17.5986H175.56Z" fill="white"/>
<path d="M190.304 17.5986H193.877V0.360136H190.519V11.7884L183.014 0.360136H179.081V17.5986H182.414V5.5701L190.304 17.5986Z" fill="white"/>
<path d="M209 14.4294H201.062V10.2999H208.113V7.1547H201.062V3.52933H208.832V0.360136H197.417V17.5986H209V14.4294Z" fill="white"/>
</svg>
